<?xml version="1.0" encoding="iso-8859-1"?>
<!-- Generator: Adobe Illustrator 19.0.0, SVG Export Plug-In . SVG Version: 6.00 Build 0)  -->
<svg version="1.1" id="Layer_1" xmlns="http://www.w3.org/2000/svg" xmlns:xlink="http://www.w3.org/1999/xlink" x="0px" y="0px"
	 viewBox="0 0 512 512" style="enable-background:new 0 0 512 512;" xml:space="preserve">
<g>
	<g>
		<path d="M475.514,52.044l-8.393-37.936c-2.147-9.702-11.752-15.825-21.453-13.68c-9.702,2.147-15.827,11.751-13.68,21.453
			l5.032,22.747L363.546,72.5c-8.304,3.151-13.066,11.888-11.215,20.573l35.386,165.964c15.852,2.378,29.059,4.36,38.007,5.704
			l-34.983-164.074l73.587-27.915C472.681,69.584,477.443,60.767,475.514,52.044z"/>
	</g>
</g>
<g>
	<g>
		<path d="M417.106,443.932c36.115-5.125,63.986-36.225,63.986-73.732c0-31.635-19.825-58.723-47.7-69.506
			c0,0-282.379-43.11-289.865-43.11c-62.098,0-112.617,50.52-112.617,112.617c0,38.394,19.316,72.355,48.736,92.693l-18.394,18.394
			c-7.026,7.025-7.026,18.418-0.001,25.443c3.514,3.513,8.117,5.27,12.722,5.27c4.603,0,9.209-1.757,12.722-5.27l26.574-26.574
			c0.38-0.381,0.731-0.779,1.069-1.184c9.313,2.501,19.096,3.844,29.188,3.844c12.124,0,151.353-20.909,229.768-32.833
			c0.721,1.199,1.574,2.341,2.6,3.383l52.468,53.266c3.522,3.575,8.168,5.366,12.818,5.366c4.559,0,9.12-1.723,12.624-5.173
			c7.079-6.973,7.165-18.363,0.192-25.442L417.106,443.932z M143.526,426.753c-31.234,0-56.553-25.32-56.553-56.553
			c0-31.234,25.32-56.553,56.553-56.553s56.553,25.32,56.553,56.553C200.078,401.433,174.758,426.753,143.526,426.753z"/>
	</g>
</g>
<g>
	<g>
		<path d="M212.167,172.523c0-9.936-8.055-17.991-17.991-17.991h-79.204c-9.936,0-17.991,8.055-17.991,17.991
			s8.056,17.991,17.991,17.991h29.324l14.259,34.386c7.234,1.039,18.482,2.7,36.397,5.351c1.206,0.179,2.452,0.363,3.705,0.549
			l-16.705-40.285h12.225C204.112,190.514,212.167,182.459,212.167,172.523z"/>
	</g>
</g>
<g>
</g>
<g>
</g>
<g>
</g>
<g>
</g>
<g>
</g>
<g>
</g>
<g>
</g>
<g>
</g>
<g>
</g>
<g>
</g>
<g>
</g>
<g>
</g>
<g>
</g>
<g>
</g>
<g>
</g>
</svg>
